<?xml version="1.0" encoding="utf-8"?>
<!-- Generator: Adobe Illustrator 16.0.0, SVG Export Plug-In . SVG Version: 6.00 Build 0)  -->
<!DOCTYPE svg PUBLIC "-//W3C//DTD SVG 1.1//EN" "http://www.w3.org/Graphics/SVG/1.1/DTD/svg11.dtd">
<svg version="1.1" id="Layer_1" xmlns="http://www.w3.org/2000/svg" xmlns:xlink="http://www.w3.org/1999/xlink" x="0px" y="0px"
	 width="20px" height="20px" viewBox="0 0 20 20" enable-background="new 0 0 20 20" xml:space="preserve">
<g>
	<path fill="#FFFFFF" d="M14.405,2.848c-1.05-1.998-3.356-3.277-5.62-2.69C6.914,0.542,5.252,2.064,4.993,4.003
		C4.73,5.959,5.744,7.991,7.471,8.948c0.532,0.295,1.116,0.487,1.715,0.585c0.042,0.641,0.076,1.288,0.187,1.92
		c-0.539,0.446-0.515,1.474-0.57,2.101c-0.122,1.374,0.006,2.756,0.037,4.13c0.03,0.629-0.021,1.61,0.563,2.032
		c0.451,0.325,1.619,0.363,2.093,0.071c0.673-0.416,0.722-1.462,0.717-2.151c-0.012-1.396-0.064-2.849-0.22-4.239
		c-0.078-0.706-0.058-1.622-0.731-2.034c-0.06-0.616-0.029-1.238-0.076-1.855C12,9.354,12.78,9.024,13.441,8.52
		C15.295,7.103,15.443,4.83,14.405,2.848z M11.476,13.744c0.11,1.38,0.259,2.858,0.184,4.241c-0.03,0.534-0.056,0.961-0.524,1.241
		c-0.321,0.194-0.701,0.218-1.069,0.122c-0.013-0.002-0.025-0.007-0.037-0.011c0.054-0.026,0.109-0.055,0.166-0.076
		c0.103-0.041,0.176-0.14,0.144-0.252c-0.027-0.099-0.148-0.187-0.253-0.146c-0.155,0.062-0.305,0.132-0.451,0.208
		c-0.054-0.07-0.097-0.15-0.128-0.241c0.263-0.206,0.535-0.401,0.817-0.581c0.222-0.145,0.016-0.501-0.208-0.355
		c-0.24,0.153-0.471,0.32-0.698,0.492c-0.01-0.098-0.014-0.196-0.018-0.295c0.277-0.19,0.555-0.381,0.831-0.573
		c0.217-0.149,0.011-0.507-0.208-0.354c-0.212,0.146-0.424,0.294-0.637,0.438c-0.002-0.098-0.005-0.194-0.009-0.293
		c0.253-0.238,0.52-0.459,0.81-0.655c0.217-0.147,0.011-0.505-0.208-0.354c-0.216,0.145-0.423,0.302-0.621,0.469
		c-0.006-0.156-0.013-0.315-0.019-0.476c0.261-0.201,0.536-0.387,0.821-0.555c0.228-0.135,0.021-0.488-0.208-0.356
		c-0.218,0.13-0.426,0.271-0.631,0.418c-0.002-0.088-0.005-0.176-0.007-0.266c0.264-0.181,0.527-0.361,0.792-0.542
		c0.217-0.149,0.011-0.509-0.208-0.357c-0.197,0.136-0.396,0.273-0.593,0.408c0-0.088,0-0.178,0-0.265
		c0.018-0.01,0.037-0.022,0.054-0.042c0.27-0.286,0.569-0.542,0.901-0.759c0.222-0.143,0.016-0.499-0.208-0.353
		c-0.261,0.17-0.508,0.36-0.735,0.573c0.005-0.11,0.011-0.218,0.018-0.327c0.301-0.248,0.628-0.457,0.98-0.628
		c0.239-0.117,0.03-0.47-0.208-0.356c-0.258,0.127-0.5,0.274-0.733,0.439c0.007-0.104,0.016-0.209,0.027-0.314
		c0.246-0.172,0.503-0.322,0.775-0.449c0.241-0.113,0.031-0.469-0.207-0.356c-0.159,0.074-0.314,0.155-0.462,0.246
		c0.115-0.373,0.337-0.671,0.813-0.733C11.399,11.581,11.417,13.009,11.476,13.744z M10.696,11.176
		c-0.265-0.037-0.55-0.025-0.808,0.037C9.804,10.682,9.772,10.138,9.739,9.6c0.301,0.02,0.603,0.013,0.903-0.015
		C10.677,10.115,10.659,10.647,10.696,11.176z M10.525,9.049c-2.27,0.177-4.434-1.21-4.924-3.492
		c-0.495-2.308,1.063-4.405,3.33-4.87c2.377-0.615,4.596,1.052,5.346,3.237C15.195,6.605,13.189,8.842,10.525,9.049z"/>
	<path fill="#FFFFFF" d="M9.772,1.025C7.724,1.164,5.64,3.034,5.978,5.214C6.3,7.298,8.477,8.626,10.474,8.587
		c2.217-0.045,3.698-1.548,3.389-3.813C13.581,2.729,11.885,0.965,9.772,1.025z M13.043,7.055c-0.577,0.825-1.614,1.1-2.569,1.119
		C8.77,8.208,6.88,7.165,6.438,5.424C5.926,3.413,7.866,1.567,9.772,1.438c1.723-0.05,3.119,1.234,3.573,2.859
		C13.586,5.169,13.581,6.286,13.043,7.055z"/>
	<path fill="#FFFFFF" d="M8.287,2.405C7.348,2.88,6.763,3.82,6.672,4.851C6.67,5.156,6.719,5.619,7.081,5.708
		C7.36,5.776,7.587,5.553,7.668,5.312C7.745,5.083,7.716,4.83,7.784,4.596c0.094-0.328,0.29-0.623,0.514-0.874
		c0.269-0.305,0.721-0.467,0.958-0.776C9.392,2.77,9.398,2.467,9.232,2.307C8.983,2.07,8.54,2.277,8.287,2.405z M8.425,3.038
		C8.1,3.299,7.806,3.618,7.602,3.983C7.486,4.19,7.395,4.418,7.345,4.649C7.33,4.722,7.334,4.804,7.31,4.874
		c-0.067,0.2-0.229,0.537-0.227-0.023C7.147,4.133,7.492,3.49,8.063,3.04c0.092-0.073,0.8-0.541,0.783-0.293
		C8.842,2.789,8.482,2.991,8.425,3.038z"/>
	<path fill="#FFFFFF" d="M9.932,1.873c-0.003,0-0.006,0.003-0.008,0.004c-0.014,0.004-0.027,0.01-0.042,0.017
		C9.552,2.067,9.465,2.518,9.708,2.8c0.255,0.296,0.707,0.243,0.92-0.071c0.129-0.19,0.098-0.446-0.01-0.638
		C10.475,1.842,10.19,1.772,9.932,1.873z M10.249,2.542c-0.047,0.042-0.109,0.062-0.168,0.038c-0.152-0.063-0.12-0.251,0-0.323
		c0.073-0.025,0.127-0.029,0.169,0.024c0.04,0.048,0.057,0.133,0.051,0.192c-0.001,0.005-0.002,0.011-0.003,0.013
		C10.287,2.503,10.265,2.528,10.249,2.542z M10.302,2.466C10.304,2.454,10.303,2.457,10.302,2.466L10.302,2.466z"/>
</g>
</svg>
