<?xml version="1.0" encoding="utf-8"?>
<!-- Generator: Adobe Illustrator 16.0.0, SVG Export Plug-In . SVG Version: 6.00 Build 0)  -->
<!DOCTYPE svg PUBLIC "-//W3C//DTD SVG 1.1//EN" "http://www.w3.org/Graphics/SVG/1.1/DTD/svg11.dtd">
<svg version="1.1" id="Layer_1" xmlns="http://www.w3.org/2000/svg" xmlns:xlink="http://www.w3.org/1999/xlink" x="0px" y="0px"
	 width="20px" height="20px" viewBox="0 0 20 20" enable-background="new 0 0 20 20" xml:space="preserve">
<g>
	<path fill="#FFFFFF" d="M16.354,5.996c-0.353-0.047-0.743,0.04-1.107,0.11c-0.376-0.921-0.789-1.826-1.232-2.708
		c-0.28-0.557-0.609-1.438-1.152-1.806c-0.752-0.508-1.599,0.334-2.07,0.85c-2.009,2.2-3.839,4.521-6.529,5.945
		C4.237,8.402,4.218,8.416,4.2,8.433c-0.758,0.233-1.515,0.471-2.267,0.72C1.449,9.313,0.79,9.423,0.389,9.778
		c-0.686,0.611-0.228,1.94,0.044,2.637c0.254,0.659,0.85,1.982,1.615,2.208c0.209,0.063,0.457,0.029,0.705-0.034
		c0.455,0.944,0.87,1.915,1.395,2.822c0.338,0.585,0.679,1.361,1.469,1.101c0.824-0.271,1.863-1.113,1.611-2.087
		c-0.128-0.49-0.577-0.856-0.855-1.254c-0.311-0.443-0.55-0.921-0.776-1.406c0.122-0.039,0.245-0.076,0.367-0.116
		c1.542-0.301,3.095-0.455,4.661-0.281c1.396,0.154,2.758,0.521,4.131,0.814c0.674,0.144,1.962,0.675,2.426-0.143
		c0.472-0.835-0.151-2.396-0.367-3.227c-0.146-0.563-0.308-1.124-0.484-1.685c0.379-0.254,0.851-0.495,1.032-0.921
		c0.195-0.449,0.001-0.945-0.188-1.36C17.011,6.492,16.782,6.053,16.354,5.996z M1.604,13.371c-0.226-0.314-0.409-0.652-0.56-1.01
		c-0.153-0.357-0.269-0.723-0.337-1.104c-0.15-0.819,0.309-1.179,1.017-1.417c0.855-0.289,1.712-0.562,2.576-0.825
		c0.434,1.379,0.896,2.748,1.385,4.109c-0.767,0.246-1.535,0.473-2.314,0.672C2.646,13.979,2.098,14.06,1.604,13.371z M6.197,15.664
		c0.077,0.104,0.203,0.234,0.265,0.335c0.382,0.597,0.392,0.965-0.113,1.521c-0.135,0.15-0.396,0.316-0.572,0.397
		c-0.171,0.085-0.299,0.127-0.411,0.132c0.083-0.142,0.15-0.288,0.2-0.441c0.094-0.269-0.331-0.384-0.421-0.116
		c-0.043,0.13-0.105,0.249-0.173,0.366c-0.02-0.019-0.037-0.034-0.057-0.055c-0.043-0.043-0.081-0.09-0.12-0.138
		c0.006-0.009,0.01-0.016,0.016-0.027c0.03-0.093,0.091-0.177,0.135-0.264c0.054-0.11,0.101-0.222,0.139-0.336
		c0.092-0.269-0.331-0.385-0.424-0.118c-0.039,0.113-0.094,0.219-0.149,0.322c-0.058-0.102-0.112-0.209-0.165-0.315l0.003-0.001
		c0.103-0.223,0.201-0.441,0.304-0.66c0.046-0.109,0.027-0.238-0.081-0.302c-0.095-0.053-0.251-0.028-0.3,0.08
		c-0.056,0.121-0.111,0.244-0.168,0.368c-0.041-0.087-0.08-0.169-0.12-0.248c-0.02-0.041-0.037-0.083-0.058-0.123
		c0.016-0.016,0.032-0.032,0.043-0.055c0.101-0.17,0.199-0.336,0.295-0.506c0.142-0.243-0.238-0.467-0.379-0.22
		c-0.062,0.103-0.122,0.207-0.183,0.313c-0.057-0.115-0.112-0.23-0.167-0.349c0.017-0.013,0.033-0.027,0.045-0.044
		c0.088-0.115,0.173-0.233,0.255-0.35c0.067-0.101,0.018-0.247-0.079-0.304c-0.108-0.062-0.234-0.018-0.3,0.079
		c-0.042,0.062-0.087,0.12-0.129,0.18c-0.05-0.107-0.1-0.215-0.152-0.321c0.125-0.04,0.243-0.078,0.349-0.105
		c0.556-0.142,1.105-0.297,1.65-0.463C5.466,14.518,5.778,15.114,6.197,15.664z M14.302,13.485c-1.26-0.278-2.519-0.59-3.806-0.719
		c-1.474-0.146-2.933-0.004-4.38,0.261c-0.503-1.395-0.974-2.797-1.417-4.21c2.416-1.321,4.295-3.382,6.066-5.451
		c0.206-0.239,0.53-0.697,0.891-1.005c1.048,1.566,1.729,3.516,2.414,5.245c0.787,1.98,1.44,4.138,1.816,6.247
		C15.344,13.813,14.68,13.566,14.302,13.485z M16.729,13.302c-0.02,0.305-0.179,0.457-0.405,0.521
		c-0.385-2.189-1.063-4.418-1.889-6.473c-0.693-1.73-1.361-3.661-2.41-5.225c0.19-0.083,0.385-0.097,0.572,0.011
		c0.248,0.143,0.461,0.708,0.594,0.948c0.604,1.108,1.115,2.275,1.583,3.448c0.56,1.402,1.053,2.831,1.438,4.292
		C16.406,11.557,16.779,12.538,16.729,13.302z M16.865,8.181c-0.152,0.215-0.428,0.369-0.672,0.519
		c-0.237-0.732-0.498-1.456-0.781-2.173c0.173-0.029,0.349-0.057,0.524-0.077c0.428-0.045,0.591,0.078,0.792,0.475
		C16.921,7.3,17.142,7.786,16.865,8.181z"/>
	<path fill="#FFFFFF" d="M16.471,4.683c0.004-0.416-0.002-0.834,0.002-1.25c0.002-0.283-0.437-0.283-0.438,0
		c-0.003,0.416,0.002,0.834-0.002,1.25C16.031,4.965,16.469,4.966,16.471,4.683z"/>
	<path fill="#FFFFFF" d="M18.255,5.528c0.229-0.251,0.459-0.503,0.688-0.752c0.19-0.208-0.12-0.52-0.31-0.311
		c-0.229,0.25-0.457,0.501-0.688,0.751C17.757,5.424,18.065,5.735,18.255,5.528z"/>
	<path fill="#FFFFFF" d="M19.759,6.962c-0.325-0.02-0.649-0.018-0.977-0.027c-0.281-0.01-0.281,0.43,0,0.438
		c0.327,0.01,0.651,0.008,0.977,0.029C20.042,7.417,20.041,6.98,19.759,6.962z"/>
	<path fill="#FFFFFF" d="M18.108,8.959c-0.229-0.165-0.448,0.216-0.222,0.379c0.279,0.202,0.54,0.426,0.795,0.659
		c0.209,0.189,0.518-0.12,0.31-0.309C18.708,9.43,18.42,9.183,18.108,8.959z"/>
	<path fill="#FFFFFF" d="M2.402,11.027c0.259-0.103,0.146-0.526-0.119-0.423c-0.293,0.114-0.587,0.229-0.882,0.344
		c-0.262,0.1-0.148,0.522,0.116,0.421C1.812,11.255,2.107,11.141,2.402,11.027z"/>
	<path fill="#FFFFFF" d="M2.522,11.322c-0.303,0.144-0.614,0.261-0.936,0.355c-0.27,0.082-0.155,0.506,0.119,0.425
		c0.355-0.106,0.7-0.241,1.037-0.401C2.998,11.58,2.775,11.201,2.522,11.322z"/>
</g>
</svg>
