<?xml version="1.0" encoding="utf-8"?>
<!-- Generator: Adobe Illustrator 16.0.0, SVG Export Plug-In . SVG Version: 6.00 Build 0)  -->
<!DOCTYPE svg PUBLIC "-//W3C//DTD SVG 1.1//EN" "http://www.w3.org/Graphics/SVG/1.1/DTD/svg11.dtd">
<svg version="1.1" id="Layer_1" xmlns="http://www.w3.org/2000/svg" xmlns:xlink="http://www.w3.org/1999/xlink" x="0px" y="0px"
	 width="20px" height="20px" viewBox="0 0 20 20" enable-background="new 0 0 20 20" xml:space="preserve">
<g>
	<path fill="#FFFFFF" d="M9.735,6.472C7.92,6.628,6.455,8.113,6.545,9.983c0.094,1.91,1.698,3.358,3.584,3.377
		C14.827,13.409,14.327,5.918,9.735,6.472z M10.129,12.787C8.551,12.79,7.215,11.561,7.12,9.983
		C7.026,8.447,8.234,7.177,9.735,7.045C13.583,6.582,14.092,12.776,10.129,12.787z"/>
	<path fill="#FFFFFF" d="M19.926,10.087c-0.018-0.486,0.153-1.46-0.281-1.826c-0.42-0.35-1.406-0.269-2.028-0.278
		c-0.145-0.486-0.257-0.995-0.451-1.459c-0.075-0.184-0.386-0.553-0.329-0.727c0.087-0.255,0.926-0.639,1.112-0.909
		c0.151-0.22,0.239-0.436,0.171-0.707c-0.118-0.459-0.677-0.813-0.996-1.11c-0.319-0.298-0.727-0.861-1.146-1.03
		c-0.676-0.273-1.345,0.655-1.794,1.17c-0.545-0.318-1.096-0.492-1.666-0.758c-0.405-0.191-0.481-0.2-0.567-0.609
		c-0.067-0.332,0.057-0.711-0.025-1.062c-0.233-1.018-1.298-0.709-2.1-0.645C9.003,0.204,8.079,0.05,8.036,1.076
		C8.022,1.402,8.191,1.831,8.074,2.145C7.977,2.416,7.9,2.346,7.533,2.48C6.963,2.687,6.44,2.935,5.933,3.257
		C5.537,2.77,5.082,2.1,4.414,2.133c-0.712,0.033-1.389,0.94-1.838,1.401c-0.919,0.944,0.043,1.59,0.743,2.31
		C2.824,6.521,2.483,7.25,2.268,8.058C1.64,7.938,0.756,7.849,0.315,8.287c-0.455,0.454-0.243,1.625-0.199,2.179
		c0.038,0.486,0.018,1.113,0.484,1.377c0.458,0.262,1.222,0.139,1.777,0.061c0.132,0.505,0.289,1,0.499,1.479
		c0.048,0.115,0.271,0.422,0.255,0.527c-0.004,0.031-0.133,0.124-0.181,0.207c-0.268,0.47-1.212,0.896-0.979,1.587
		c0.217,0.649,1.566,1.809,2.212,2.06c0.719,0.277,1.319-0.487,1.805-0.988c0.679,0.483,1.406,0.782,2.233,0.904
		c-0.034,0.636-0.278,1.521,0.112,1.976c0.293,0.345,0.985,0.27,1.363,0.278c0.504,0.014,1.153,0.085,1.631-0.105
		c0.346-0.139,0.526-0.337,0.602-0.699c0.077-0.375-0.26-1.05-0.091-1.352c0.139-0.251,0.983-0.4,1.292-0.563
		c0.512-0.273,0.938-0.779,1.478-0.298c0.564,0.509,0.816,1.386,1.63,0.892c0.594-0.359,1.259-1.058,1.612-1.644
		c0.403-0.665,0.109-0.922-0.413-1.391c-0.528-0.476-0.729-0.447-0.417-1.161c0.257-0.586,0.438-1.187,0.628-1.796
		c0.613,0.031,1.511,0.179,1.984-0.125C20.126,11.374,19.939,10.554,19.926,10.087z M18.991,11.225
		c-0.419,0.132-1.116,0.009-1.555,0.012c-0.097,0.001-0.165,0.04-0.21,0.099c-0.03,0.029-0.053,0.065-0.066,0.109
		c-0.253,0.814-0.624,1.563-0.911,2.343c-0.129,0.351-0.083,0.538,0.141,0.826c0.247,0.318,0.852,0.528,1.003,0.899
		c0.158,0.392-0.622,1.065-0.866,1.31c-0.129,0.129-0.354,0.404-0.532,0.455c-0.351,0.092-0.478-0.156-0.725-0.449
		c-0.254-0.293-0.513-0.758-0.942-0.81c-0.3-0.037-0.629,0.201-0.882,0.342c-0.649,0.361-1.211,0.65-1.952,0.776
		c-0.086,0.014-0.19,0.111-0.202,0.2c-0.05,0.371,0.033,0.704,0.036,1.072c0.004,0.978-0.848,0.971-1.631,0.951
		c-0.699-0.019-0.961-0.018-0.933-0.746c0.013-0.391,0.063-0.795,0.033-1.184c-0.012-0.167-0.124-0.272-0.289-0.288
		c-0.877-0.084-1.65-0.396-2.345-0.946c-0.037-0.029-0.075-0.047-0.114-0.058c-0.091-0.036-0.2-0.028-0.292,0.058
		c-0.253,0.23-0.724,0.863-1.044,0.957c-0.558,0.161-1.063-0.487-1.421-0.829c-0.284-0.269-0.792-0.6-0.648-1.042
		c0.102-0.31,0.563-0.61,0.794-0.83c0.254-0.241,0.347-0.314,0.267-0.658c-0.088-0.383-0.364-0.758-0.501-1.132
		c-0.138-0.379-0.24-0.762-0.335-1.15c-0.027-0.111-0.156-0.228-0.276-0.211c-0.301,0.036-0.603,0.066-0.906,0.077
		c-0.546,0.018-0.837,0.081-0.95-0.525c-0.082-0.437-0.132-0.988-0.076-1.426c0.032-0.248,0.054-0.66,0.298-0.814
		C1.24,8.435,2.125,8.609,2.404,8.67C2.549,8.705,2.72,8.629,2.756,8.471c0.211-0.934,0.597-1.749,1.179-2.505
		c0.08-0.105,0.031-0.262-0.044-0.349C3.478,5.144,2.531,4.612,2.982,3.94C3.149,3.69,3.68,3.146,3.95,3.019
		C4.801,2.62,5.139,3.218,5.611,3.765c0.063,0.145,0.223,0.241,0.39,0.127c0.632-0.431,1.293-0.68,2-0.951
		c0.149-0.058,0.372-0.117,0.48-0.239c0.165-0.182,0.179-0.483,0.19-0.714C8.682,1.745,8.566,1.46,8.62,1.227
		c0.113-0.48,0.604-0.467,1.027-0.501c0.274-0.021,0.601-0.05,0.877-0.071c0.35-0.027,0.521,0.026,0.717,0.131
		c0.246,0.139,0.134,0.406,0.162,0.731c0.041,0.35-0.137,0.696,0.06,1.024c0.143,0.244,0.331,0.293,0.589,0.383
		c0.708,0.251,1.357,0.465,1.998,0.878c0.022,0.013,0.046,0.023,0.069,0.031c0.098,0.05,0.216,0.048,0.317-0.052
		c0.308-0.305,0.662-0.844,1.041-1.034c0.474-0.238,0.732,0.255,1.11,0.608c0.392,0.366,1.099,0.774,0.717,1.372
		c-0.188,0.293-0.637,0.403-0.873,0.665c-0.237,0.256-0.248,0.399-0.137,0.708c0.109,0.303,0.31,0.564,0.415,0.874
		c0.155,0.448,0.266,0.914,0.412,1.366c0.043,0.127,0.146,0.2,0.279,0.21c0.447,0.033,0.994-0.01,1.426,0.109
		c0.683,0.188,0.501,0.835,0.519,1.428C19.362,10.573,19.506,11.063,18.991,11.225z"/>
	<path fill="#FFFFFF" d="M8.68,5.04c0.35-0.111,0.698-0.166,1.064-0.163c0.37,0.003,0.37-0.571,0-0.574
		C9.332,4.299,8.921,4.36,8.528,4.487C8.178,4.602,8.326,5.155,8.68,5.04z"/>
	<path fill="#FFFFFF" d="M11.878,5.207c0.301,0.08,0.574,0.216,0.812,0.42c0.28,0.24,0.688-0.165,0.405-0.407
		c-0.312-0.268-0.665-0.462-1.065-0.566C11.672,4.559,11.52,5.112,11.878,5.207z"/>
	<path fill="#FFFFFF" d="M15.275,7.85c-0.125-0.359-0.301-0.692-0.529-0.994c-0.094-0.123-0.248-0.188-0.393-0.103
		c-0.119,0.071-0.198,0.27-0.104,0.394c0.198,0.261,0.363,0.545,0.473,0.856C14.843,8.349,15.401,8.198,15.275,7.85z"/>
	<path fill="#FFFFFF" d="M15.051,10.207c-0.029,0.338-0.088,0.669-0.172,0.997c-0.091,0.359,0.464,0.512,0.555,0.153
		c0.094-0.378,0.155-0.761,0.193-1.15C15.658,9.838,15.085,9.841,15.051,10.207z"/>
	<path fill="#FFFFFF" d="M14.278,13.008c-0.125-0.072-0.329-0.04-0.395,0.104c-0.134,0.291-0.34,0.52-0.621,0.676
		c-0.319,0.181-0.031,0.678,0.291,0.498c0.36-0.202,0.656-0.51,0.828-0.884C14.445,13.26,14.422,13.091,14.278,13.008z"/>
	<path fill="#FFFFFF" d="M11.294,14.779c-0.327,0.059-0.657,0.104-0.989,0.133c-0.366,0.03-0.368,0.604,0,0.574
		c0.382-0.035,0.764-0.085,1.141-0.154C11.811,15.267,11.657,14.713,11.294,14.779z"/>
	<path fill="#FFFFFF" d="M8.203,14.587c-0.341-0.096-0.647-0.249-0.932-0.459c-0.126-0.092-0.319-0.021-0.394,0.104
		c-0.086,0.144-0.02,0.301,0.104,0.393c0.323,0.234,0.685,0.407,1.069,0.515C8.407,15.239,8.559,14.684,8.203,14.587z"/>
	<path fill="#FFFFFF" d="M5.316,11.732c-0.099-0.355-0.654-0.205-0.556,0.153c0.115,0.411,0.31,0.776,0.574,1.11
		c0.097,0.123,0.304,0.099,0.406,0c0.122-0.119,0.095-0.285,0-0.405C5.539,12.335,5.4,12.045,5.316,11.732z"/>
	<path fill="#FFFFFF" d="M5.052,9.637C5.049,9.287,5.071,8.94,5.13,8.593C5.191,8.232,4.638,8.077,4.576,8.44
		C4.509,8.837,4.474,9.235,4.479,9.637C4.481,10.006,5.057,10.007,5.052,9.637z"/>
	<path fill="#FFFFFF" d="M6.546,5.569C6.198,5.783,5.888,6.05,5.632,6.369c-0.098,0.12-0.118,0.288,0,0.406
		c0.1,0.101,0.308,0.12,0.405,0c0.227-0.281,0.49-0.521,0.799-0.709C7.149,5.873,6.862,5.375,6.546,5.569z"/>
</g>
</svg>
