<?xml version="1.0" encoding="utf-8"?>
<!-- Generator: Adobe Illustrator 16.0.0, SVG Export Plug-In . SVG Version: 6.00 Build 0)  -->
<!DOCTYPE svg PUBLIC "-//W3C//DTD SVG 1.1//EN" "http://www.w3.org/Graphics/SVG/1.1/DTD/svg11.dtd">
<svg version="1.1" id="Layer_1" xmlns="http://www.w3.org/2000/svg" xmlns:xlink="http://www.w3.org/1999/xlink" x="0px" y="0px"
	 width="97px" height="40px" viewBox="0 0 97 40" enable-background="new 0 0 97 40" xml:space="preserve">
<g display="none">
	<path display="inline" d="M26.677,31.331c-3.729,3.855-8.231,5.783-13.502,5.783c-3.777,0-6.874-1.186-9.29-3.554
		c-2.415-2.368-3.623-5.409-3.623-9.122c0-3.698,0.874-7.216,2.621-10.553c1.746-3.336,4.032-6.003,6.856-8.002
		c2.825-1.998,5.598-2.998,8.321-2.998c2.281,0,4.143,0.685,5.583,2.054c1.439,1.369,2.159,3.148,2.159,5.335
		c0,2.849-0.869,5.315-2.608,7.4c-1.738,2.086-3.773,3.128-6.102,3.128c-1.228,0-2.235-0.314-3.021-0.944
		c-0.787-0.63-1.181-1.44-1.181-2.432c0-0.85,0.338-1.637,1.016-2.36c0.503,0.929,1.195,1.393,2.077,1.393
		c1.258,0,2.427-0.786,3.505-2.36c1.078-1.573,1.617-3.296,1.617-5.17c0-1.306-0.304-2.345-0.909-3.115
		c-0.605-0.771-1.412-1.157-2.419-1.157c-1.464,0-3.025,0.913-4.686,2.738c-1.661,1.826-3.045,4.17-4.155,7.034
		c-1.109,2.865-1.664,5.587-1.664,8.168c0,3.29,0.933,5.987,2.798,8.097c1.864,2.109,4.236,3.163,7.117,3.163
		c1.824,0,3.47-0.424,4.933-1.27c1.464-0.845,2.982-2.17,4.557-3.971V31.331z"/>
	<path display="inline" d="M44.31,31.307c-3.95,3.872-6.995,5.808-9.136,5.808c-0.96,0-1.77-0.406-2.431-1.215
		c-0.661-0.812-0.991-1.814-0.991-3.01c0-2.22,1.188-5.194,3.564-8.924c-1.165,0.599-2.44,1.015-3.824,1.251
		c-1.023,1.888-2.629,3.919-4.815,6.09h-0.544v-2.124c1.229-1.274,2.338-2.644,3.329-4.107c-1.354-0.599-2.03-1.487-2.03-2.668
		c0-1.21,0.413-2.505,1.239-3.883c0.826-1.377,1.963-2.065,3.411-2.065c1.228,0,1.841,0.63,1.841,1.889
		c0,0.991-0.354,2.408-1.062,4.249c2.611-0.283,4.894-2.281,6.845-5.996l2.148-0.095l-2.195,6.044
		c-0.913,2.55-1.503,4.285-1.771,5.204c-0.268,0.922-0.401,1.735-0.401,2.443c0,0.661,0.154,1.188,0.461,1.582
		c0.307,0.393,0.72,0.591,1.239,0.591c0.566,0,1.109-0.192,1.629-0.578c0.519-0.387,1.683-1.453,3.493-3.2V31.307z"/>
	<path display="inline" d="M61.966,31.307c-1.997,1.968-3.79,3.419-5.382,4.355c-1.588,0.938-3.343,1.405-5.263,1.405
		c-2.142,0-3.868-0.686-5.183-2.055c-1.313-1.368-1.971-3.171-1.971-5.404c0-3.338,1.156-6.354,3.47-9.054
		c2.315-2.698,4.878-4.049,7.697-4.049c1.463,0,2.635,0.378,3.516,1.134c0.883,0.755,1.321,1.746,1.321,2.974
		c0,3.259-3.46,5.902-10.386,7.932c0.63,3.068,2.274,4.603,4.935,4.603c1.038,0,2.03-0.277,2.974-0.836
		c0.944-0.559,2.37-1.799,4.271-3.72V31.307z M49.597,26.94c4.03-1.133,6.043-3.226,6.043-6.279c0-1.511-0.55-2.267-1.651-2.267
		c-1.039,0-2.031,0.791-2.975,2.372C50.068,22.35,49.597,24.407,49.597,26.94z"/>
	<path display="inline" d="M75.563,31.307c-1.982,1.968-3.696,3.419-5.146,4.355c-1.447,0.938-2.825,1.405-4.129,1.405
		c-1.355,0-2.453-0.571-3.294-1.713c-0.842-1.14-1.265-2.638-1.265-4.496c0-1.636,0.405-3.796,1.211-6.482l1.003-3.573l-1.811,0.094
		l0.755-3.706l2.244-0.094l2.217-7.365l6.306-1.294l-2.44,8.21l3.335-0.188l-0.78,3.636l-3.663,0.283l-1.571,5.29
		c-0.548,1.837-0.819,3.3-0.819,4.385c0,0.742,0.187,1.345,0.556,1.808c0.368,0.466,0.847,0.698,1.43,0.698
		c0.806,0,1.6-0.256,2.388-0.767c0.79-0.512,1.947-1.577,3.475-3.2V31.307z"/>
	<path display="inline" d="M96.738,31.307c-0.802,0.709-1.583,1.209-2.339,1.499c-0.755,0.292-1.352,0.438-1.794,0.438
		c-1.132,0-2.257-0.44-3.373-1.323c-2.267,3.433-4.863,5.147-7.79,5.147c-1.827,0-3.306-0.686-4.438-2.055
		c-1.132-1.368-1.699-3.187-1.699-5.452c0-3.588,1.275-6.67,3.824-9.242s5.593-3.859,9.133-3.859c1.34,0,2.319,0.146,2.939,0.437
		c0.621,0.292,1.006,0.634,1.146,1.027c0.142,0.394,0.211,0.889,0.211,1.487c0,2.942-0.803,6.556-2.408,10.835
		c0.804,0.739,1.645,1.108,2.527,1.108c1.053,0,2.408-0.92,4.061-2.762V31.307z M88.948,18.111
		c-0.235-0.095-0.574-0.142-1.016-0.142c-2.045,0-3.647,1.07-4.806,3.211c-1.155,2.141-1.731,4.643-1.731,7.507
		c0,1.59,0.249,2.823,0.755,3.705c0.502,0.882,1.202,1.322,2.1,1.322c1.118,0,2.33-1.03,3.635-3.092
		c-1.478-1.857-2.219-3.855-2.219-5.996C85.666,22.109,86.76,19.938,88.948,18.111z"/>
</g>
<g>
	<path d="M25.674,30.854c-3.573,3.693-7.884,5.54-12.934,5.54c-3.619,0-6.584-1.134-8.898-3.403
		c-2.314-2.268-3.471-5.182-3.471-8.739c0-3.541,0.836-6.911,2.51-10.107c1.673-3.197,3.862-5.751,6.569-7.666
		c2.706-1.914,5.362-2.872,7.97-2.872c2.186,0,3.969,0.656,5.348,1.967c1.378,1.311,2.069,3.015,2.069,5.11
		c0,2.729-0.834,5.092-2.499,7.089c-1.666,1.998-3.615,2.996-5.845,2.996c-1.176,0-2.141-0.3-2.894-0.903
		c-0.754-0.604-1.131-1.379-1.131-2.33c0-0.814,0.325-1.567,0.973-2.262c0.482,0.89,1.145,1.334,1.989,1.334
		c1.206,0,2.326-0.753,3.358-2.262c1.032-1.507,1.549-3.158,1.549-4.951c0-1.252-0.29-2.246-0.871-2.985
		c-0.581-0.739-1.354-1.107-2.317-1.107c-1.402,0-2.898,0.875-4.488,2.623c-1.591,1.75-2.917,3.995-3.98,6.739
		c-1.063,2.744-1.594,5.352-1.594,7.823c0,3.151,0.894,5.737,2.679,7.756c1.787,2.021,4.059,3.03,6.817,3.03
		c1.749,0,3.325-0.404,4.726-1.215c1.402-0.812,2.856-2.079,4.364-3.805V30.854z"/>
	<path d="M42.564,30.831c-3.784,3.708-6.702,5.563-8.751,5.563c-0.92,0-1.695-0.388-2.33-1.164
		c-0.633-0.776-0.949-1.737-0.949-2.883c0-2.126,1.137-4.976,3.414-8.549c-1.115,0.575-2.336,0.974-3.663,1.2
		c-0.979,1.809-2.518,3.754-4.612,5.833h-0.52v-2.034c1.176-1.222,2.238-2.533,3.188-3.936c-1.297-0.572-1.945-1.424-1.945-2.555
		c0-1.161,0.396-2.401,1.188-3.72c0.791-1.319,1.88-1.979,3.267-1.979c1.176,0,1.764,0.603,1.764,1.81
		c0,0.95-0.339,2.307-1.017,4.069c2.502-0.271,4.688-2.186,6.557-5.743l2.058-0.091l-2.102,5.79
		c-0.875,2.441-1.44,4.103-1.697,4.985c-0.256,0.881-0.384,1.661-0.384,2.339c0,0.634,0.147,1.139,0.441,1.516
		s0.689,0.565,1.188,0.565c0.542,0,1.063-0.185,1.56-0.554c0.499-0.369,1.614-1.392,3.347-3.063V30.831z"/>
	<path d="M59.478,30.831c-1.914,1.885-3.633,3.275-5.155,4.172s-3.204,1.346-5.042,1.346c-2.051,0-3.705-0.655-4.963-1.968
		c-1.259-1.311-1.888-3.037-1.888-5.178c0-3.196,1.108-6.086,3.324-8.671c2.215-2.585,4.673-3.879,7.373-3.879
		c1.4,0,2.523,0.362,3.368,1.086c0.844,0.724,1.267,1.673,1.267,2.85c0,3.119-3.315,5.652-9.95,7.598
		c0.603,2.938,2.178,4.409,4.726,4.409c0.994,0,1.944-0.269,2.849-0.804s2.268-1.722,4.093-3.561V30.831z M47.629,26.647
		c3.859-1.084,5.789-3.09,5.789-6.014c0-1.448-0.527-2.171-1.583-2.171c-0.995,0-1.944,0.757-2.849,2.271
		C48.082,22.251,47.629,24.221,47.629,26.647z"/>
	<path d="M72.503,30.831c-1.899,1.885-3.544,3.275-4.931,4.172c-1.386,0.896-2.705,1.346-3.956,1.346
		c-1.297,0-2.348-0.547-3.154-1.64s-1.21-2.528-1.21-4.308c0-1.567,0.386-3.637,1.161-6.209l0.958-3.424l-1.735,0.092l0.726-3.551
		l2.149-0.091l2.123-7.055l6.041-1.239l-2.338,7.865l3.193-0.181l-0.747,3.482l-3.508,0.272L65.77,25.43
		c-0.523,1.76-0.786,3.161-0.786,4.201c0,0.709,0.179,1.286,0.533,1.731s0.811,0.667,1.37,0.667c0.77,0,1.533-0.244,2.287-0.734
		c0.754-0.489,1.864-1.512,3.329-3.063V30.831z"/>
	<path d="M96.629,30.831c-2.413,2.291-4.138,3.784-5.178,4.478c-1.039,0.693-2.034,1.04-2.984,1.04c-2.383,0-3.506-2.104-3.37-6.309
		c-1.508,2.155-2.897,3.746-4.171,4.771c-1.274,1.025-2.59,1.538-3.946,1.538c-1.326,0-2.454-0.622-3.381-1.865
		c-0.927-1.244-1.39-2.771-1.39-4.58c0-2.261,0.621-4.416,1.864-6.466c1.244-2.05,2.838-3.708,4.783-4.975
		c1.944-1.267,3.663-1.899,5.155-1.899c1.885,0,3.202,0.866,3.956,2.6l4.622-2.555h1.27l-1.995,6.625
		c-1.028,3.332-1.54,5.617-1.54,6.852c0,1.297,0.458,1.944,1.378,1.944c0.588,0,1.236-0.312,1.943-0.938
		c0.708-0.626,1.702-1.579,2.983-2.86V30.831z M80.076,32.075c1.509,0,2.93-1.285,4.264-3.855c1.333-2.57,2.001-4.939,2.001-7.112
		c0-0.843-0.189-1.503-0.565-1.978c-0.377-0.475-0.883-0.711-1.516-0.711c-1.507,0-2.935,1.281-4.284,3.843
		c-1.35,2.563-2.024,4.923-2.024,7.078c0,0.813,0.199,1.474,0.6,1.979C78.949,31.822,79.459,32.075,80.076,32.075z"/>
</g>
</svg>
